<?xml version="1.0" encoding="UTF-8"?>
<svg width="126px" height="126px" viewBox="0 0 126 126" version="1.1" xmlns="http://www.w3.org/2000/svg" xmlns:xlink="http://www.w3.org/1999/xlink">
    <!-- Generator: Sketch 52.5 (67469) - http://www.bohemiancoding.com/sketch -->
    <title>illustration-wall-grey</title>
    <desc>Created with Sketch.</desc>
    <g id="Page-1" stroke="none" stroke-width="1" fill="none" fill-rule="evenodd">
        <g id="illustration-wall-grey">
            <path d="M63,0.5 C28.482,0.5 0.5,28.482 0.5,63 L125.5,63 C125.5,28.482 97.518,0.5 63,0.5" id="Fill-76" fill="#C3E1F5"></path>
            <path d="M62.5,63 C27.982,63 7.10542736e-15,90.982 7.10542736e-15,125.5 L125,125.5 C125,90.982 97.018,63 62.5,63" id="Fill-76" fill-opacity="0" fill="#F3F3F2" transform="translate(62.500000, 94.250000) rotate(180.000000) translate(-62.500000, -94.250000) "></path>
            <polygon id="Fill-78" fill="#FFFFFF" points="104.5464 56.1621 64.8284 14.8551 23.5214 56.1621 23.5214 100.6461 104.5464 100.6461"></polygon>
            <polyline id="Stroke-92" stroke="#8C857B" points="23.521 56.1621 23.521 100.6461 104.546 100.6461 104.546 56.1621"></polyline>
            <polyline id="Stroke-86" stroke="#8C857B" points="23.521 56.1621 23.521 100.6461 104.546 100.6461 104.546 56.1621"></polyline>
            <polyline id="Fill-84" fill="#FFA300" points="23.521 56.1621 23.521 100.6461 104.546 100.6461 104.546 56.1621"></polyline>
            <polygon id="Stroke-80" stroke="#8C857B" points="104.5464 56.1621 64.8284 14.8551 23.5214 56.1621 23.5214 100.6461 104.5464 100.6461"></polygon>
            <polygon id="Stroke-88" stroke="#8C857B" points="75.95 100.646 96.603 100.646 96.603 62.517 75.95 62.517"></polygon>
            <path d="M92.6309,83.9648 C92.6309,84.8418 91.9199,85.5538 91.0419,85.5538 C90.1649,85.5538 89.4539,84.8418 89.4539,83.9648 C89.4539,83.0878 90.1649,82.3758 91.0419,82.3758 C91.9199,82.3758 92.6309,83.0878 92.6309,83.9648 Z" id="Stroke-90" stroke="#8C857B"></path>
            <polygon id="Stroke-91" stroke="#8C857B" points="34.642 87.936 66.417 87.936 66.417 62.517 34.642 62.517"></polygon>
            <polyline id="Stroke-82" stroke="#8C857B" points="110 55.3677 64.935 8.4997 18.067 55.3677"></polyline>
        </g>
    </g>
</svg>