<svg id="Capa_1" data-name="Capa 1" xmlns="http://www.w3.org/2000/svg" viewBox="0 0 249.43 249.43"><defs><style>.cls-1{fill:#ffa300;}</style></defs><title>Mesa de trabajo 1</title><path class="cls-1" d="M206.79,81.5a6,6,0,0,0-6,6V237.42H12V48.63H158.79a6,6,0,0,0,0-12H6a6,6,0,0,0-6,6V243.42a6,6,0,0,0,6,6H206.79a6,6,0,0,0,6-6V87.5A6,6,0,0,0,206.79,81.5Z"/><path class="cls-1" d="M247.67,1.76a6,6,0,0,0-8.49,0L80.42,160.52,41,121.13a6,6,0,0,0-8.49,8.48l43.64,43.64a6,6,0,0,0,8.49,0l163-163A6,6,0,0,0,247.67,1.76Z"/></svg>