<svg width="25" height="25" xmlns="http://www.w3.org/2000/svg"><path d="M11.32 16.512h-.85c-.07 0-.146-.007-.224-.02a11.095 11.095 0 0 0-.254-.039c-.091.117-.29.296-.596.537-.306.241-.664.498-1.074.772-.41.273-.86.524-1.347.752-.489.228-.915.368-1.28.42h-.02l-.048.01a.287.287 0 0 1-.176-.01l-.097-.04a.382.382 0 0 1-.157-.117.382.382 0 0 1-.049-.088.557.557 0 0 1-.039-.205c0-.065.013-.123.04-.175h-.02c.716-1.224 1.074-2.123 1.074-2.696v-.039A5.416 5.416 0 0 1 3.84 13.29a6.515 6.515 0 0 1-.82-3.164c0-1.107.364-2.129 1.093-3.066.73-.938 1.719-1.677 2.969-2.217 1.25-.54 2.617-.81 4.102-.81.56 0 1.106.042 1.64.126.534.085 1.042.202 1.524.352.481.15.94.335 1.377.556.436.222.833.47 1.191.743.358.273.684.573.977.898.293.326.54.67.742 1.035.202.365.358.749.469 1.153.11.403.166.813.166 1.23.013 1.25-.33 2.363-1.026 3.34-.696.976-1.65 1.728-2.861 2.256-1.211.527-2.565.79-4.063.79zm-1.836-1.348l.684.059c.404.052.8.071 1.191.058.938 0 1.82-.13 2.647-.39.827-.26 1.533-.616 2.119-1.065a4.942 4.942 0 0 0 1.387-1.64 4.367 4.367 0 0 0 .508-2.061c0-.885-.303-1.7-.909-2.441-.605-.743-1.432-1.329-2.48-1.758-1.048-.43-2.197-.645-3.447-.645s-2.406.215-3.467.645c-1.061.43-1.901 1.015-2.52 1.758-.618.742-.927 1.556-.927 2.441 0 .872.211 1.709.634 2.51.423.8 1.045 1.41 1.866 1.826l.683.351-.058.762v.137c-.013.078-.053.25-.118.518a8.577 8.577 0 0 1-.293.927A9.443 9.443 0 0 0 8 16.443c.352-.28.58-.485.684-.615l.8-.664zm13.536 0c0 1.836-.905 3.223-2.715 4.16v.04c0 .195.022.42.068.673a8.049 8.049 0 0 0 .38 1.397c.079.208.15.364.216.468a.397.397 0 0 1-.371.566h-.118c-.585-.103-1.223-.416-1.914-.937-.69-.52-1.178-.944-1.464-1.27a6.92 6.92 0 0 1-.762.04h-.371c-.508 0-.996-.036-1.465-.108a7.617 7.617 0 0 1-1.328-.322 7.342 7.342 0 0 1-1.172-.517 6.924 6.924 0 0 1-1.016-.684 5.96 5.96 0 0 1-.84-.83l.02-.02h1.777c1.055.82 2.396 1.23 4.024 1.23h.176c.13 0 .273-.002.43-.009.155-.006.273-.016.35-.03l.665-.097.039.078c.039.065.1.15.185.254.085.104.186.221.303.352.117.13.274.28.469.449.195.17.41.338.644.508-.065-.274-.117-.944-.156-2.012l.606-.293c.364-.195.68-.4.947-.615a3.15 3.15 0 0 0 .654-.703c.17-.254.293-.528.371-.82.078-.294.118-.61.118-.948 0-.573-.098-1.058-.293-1.455-.196-.397-.554-.778-1.075-1.143.17-.52.274-.97.313-1.347 1.536.898 2.305 2.213 2.305 3.945z" fill="#0B98CD" fill-rule="evenodd"/></svg>