<svg width="25" height="25" xmlns="http://www.w3.org/2000/svg"><path d="M7.343 2.279C8.905.759 10.78 0 12.967 0c2.186 0 4.072.76 5.656 2.279C20.208 3.798 21 5.642 21 7.813c0 2.213-.67 4.752-2.008 7.617-1.34 2.864-2.678 5.186-4.017 6.966L12.967 25a22.46 22.46 0 0 1-.87-1.107c-.358-.477-.994-1.4-1.909-2.767a43.509 43.509 0 0 1-2.41-4.036c-.692-1.324-1.328-2.854-1.908-4.59C5.29 10.764 5 9.201 5 7.812c0-2.17.781-4.014 2.343-5.533zm2.946 8.268a3.837 3.837 0 0 0 2.678 1.042c1.026 0 1.919-.359 2.677-1.075.76-.716 1.138-1.573 1.138-2.571 0-.999-.379-1.867-1.138-2.604-.758-.738-1.651-1.107-2.677-1.107-1.027 0-1.908.369-2.645 1.107-.736.737-1.104 1.605-1.104 2.604 0 .998.357 1.866 1.07 2.604z" fill="#FFA800" fill-rule="evenodd"/></svg>