<svg width="25" height="25" xmlns="http://www.w3.org/2000/svg"><path d="M.55 7.364c-.277-.146-.415-.382-.415-.708 0-.146.04-.28.122-.403a.812.812 0 0 1 .317-.28L12.286.084a.775.775 0 0 1 .708 0l11.59 5.887c.13.065.232.159.305.281a.77.77 0 0 1 .11.403c.016.326-.114.562-.39.708l-11.737 6.327a2.342 2.342 0 0 1-.171.049.918.918 0 0 1-.561-.049L.55 7.364zM12.627 1.65L2.599 6.705l9.907 5.398 10.028-5.398-9.906-5.056zm11.81 10.063c.292.147.439.379.439.696 0 .318-.139.55-.415.697L12.75 19.43a1.07 1.07 0 0 1-.183.073.663.663 0 0 1-.183.025.866.866 0 0 1-.39-.098L.402 13.105A.711.711 0 0 1 0 12.408a.758.758 0 0 1 .427-.696l2.465-1.221 1.659.904-2.074 1.05 9.907 5.398 10.028-5.398-1.952-1.001 1.66-.904 2.317 1.172zm0 5.472c.292.146.439.378.439.696 0 .317-.139.55-.415.696L12.75 24.902a1.07 1.07 0 0 1-.183.074.663.663 0 0 1-.318.012.695.695 0 0 1-.122-.037 2.44 2.44 0 0 0-.134-.049L.403 18.576A.711.711 0 0 1 0 17.88a.758.758 0 0 1 .427-.696l2.318-1.05 1.66.903-1.928.88 9.907 5.398 10.028-5.399-1.83-.903 1.66-.904 2.195 1.075z" fill="#FFF" fill-rule="evenodd"/></svg>